<?xml version="1.0" encoding="utf-8"?>
<svg version="1.1" id="Layer_1"
xmlns="http://www.w3.org/2000/svg"
xmlns:xlink="http://www.w3.org/1999/xlink"
width="550px" height="400px"
xml:space="preserve">
<g id="PathID_1" transform="matrix(0.401332, 0, 0, 0.401332, 217.1, 204.65)" opacity="1">
<path style="fill:#588524;fill-opacity:1" d="M31.25 -1.25Q26.6 0.25 21.25 0.25Q2.5 0.25 2.5 -18.35Q2.5 -36 21.25 -36Q26.6 -36 31.25 -34.5L31.25 -30.5Q26.6 -32.25 21.75 -32.25Q7.1 -32.25 7.1 -18.35Q7.1 -3.5 21.75 -3.5Q26.6 -3.5 31.25 -5.25L31.25 -1.25" />
</g>
<g id="PathID_2" transform="matrix(0.401332, 0, 0, 0.401332, 237.85, 204.65)" opacity="1">
<path style="fill:#588524;fill-opacity:1" d="M8.35 -35.75L8.35 0L3.75 0L3.75 -35.75L8.35 -35.75" />
</g>
<g id="PathID_3" transform="matrix(0.401332, 0, 0, 0.401332, 249.55, 204.65)" opacity="1">
<path style="fill:#588524;fill-opacity:1" d="M24.8 -11.8L7.1 -11.8Q7.1 -3.75 17.25 -3.75Q20.75 -3.75 24.2 -4.5L24.2 -0.75Q20.75 0 15.75 0Q2.5 0 2.5 -13.4Q2.5 -26.25 15.05 -26.25Q27.1 -26.25 24.8 -11.8M7.1 -15.65L20.55 -15.65Q20.9 -22.55 14.3 -22.55Q7.55 -22.55 7.1 -15.65" />
</g>
<g id="PathID_4" transform="matrix(0.401332, 0, 0, 0.401332, 267.75, 204.65)" opacity="1">
<path style="fill:#588524;fill-opacity:1" d="M2.5 -8.15Q2.5 -16.25 13.15 -16.25Q17.05 -16.25 20 -15.75L20 -18.2Q20 -22.5 12.9 -22.5Q8.85 -22.5 4.6 -21.25L4.6 -25Q8.85 -26.25 12.9 -26.25Q24.6 -26.25 24.6 -17.85L24.6 0L22.25 0L20.4 -1.85Q17 0 12.35 0Q2.5 0 2.5 -8.15M13.15 -12.5Q7.1 -12.5 7.1 -8.25Q7.1 -3.75 12.35 -3.75Q17.15 -3.75 20 -5.8L20 -12Q17.25 -12.5 13.15 -12.5" />
</g>
<g id="PathID_5" transform="matrix(0.401332, 0, 0, 0.401332, 285.95, 204.65)" opacity="1">
<path style="fill:#588524;fill-opacity:1" d="M3.75 0L3.75 -26.25L6.85 -26.25L7.7 -22.9Q12.45 -26.25 17.3 -26.25Q26.35 -26.25 26.35 -16.45L26.35 0L21.75 0L21.75 -16.55Q21.75 -22.4 15.9 -22.4Q11.95 -22.4 8.35 -19.05L8.35 0L3.75 0" />
</g>
<g id="PathID_6" transform="matrix(0.401332, 0, 0, 0.401332, 304.9, 204.65)" opacity="1">
<path style="fill:#588524;fill-opacity:1" d="M7.3 -18.15Q2.5 -20.3 2.5 -26.1Q2.5 -35.75 15.25 -35.75Q19.85 -35.75 24.25 -34.5L24.25 -30.75Q19.85 -32 15.55 -32Q7.1 -32 7.1 -26.25Q7.1 -20 13.5 -20L23.2 -20L23.2 -23.55L24.75 -23.55L27.3 -20L31.85 -20L31.85 -16.25L27.8 -16.25L27.8 -12.25Q27.8 0.05 14.85 0.05Q2.5 0.05 2.5 -9.85Q2.5 -16 7.3 -18.15M13.55 -16.25Q7.1 -16.25 7.1 -9.95Q7.1 -3.75 14.65 -3.75Q23.2 -3.75 23.2 -12.3L23.2 -16.25L13.55 -16.25" />
</g>
<g id="PathID_7" transform="matrix(0.401332, 0, 0, 0.401332, 324.55, 204.65)" opacity="1">
<path style="fill:#588524;fill-opacity:1" d="M4.25 -1.25L4.25 -5.5Q9.85 -3.5 16.4 -3.5Q25.6 -3.5 25.6 -10.25Q25.6 -16 18.8 -16L13.7 -16Q2.5 -16 2.5 -25.75Q2.5 -36 16.85 -36Q23.1 -36 28.5 -34.5L28.5 -30.25Q23.1 -32.25 16.85 -32.25Q7.1 -32.25 7.1 -25.75Q7.1 -20 13.7 -20L18.8 -20Q30.25 -20 30.25 -10.25Q30.25 0.25 16.4 0.25Q9.85 0.25 4.25 -1.25" />
</g>
<g id="PathID_8" transform="matrix(0.401332, 0, 0, 0.401332, 344.5, 204.65)" opacity="1">
<path style="fill:#588524;fill-opacity:1" d="M2.5 -8.15Q2.5 -16.25 13.15 -16.25Q17.05 -16.25 20 -15.75L20 -18.2Q20 -22.5 12.9 -22.5Q8.85 -22.5 4.6 -21.25L4.6 -25Q8.85 -26.25 12.9 -26.25Q24.6 -26.25 24.6 -17.85L24.6 0L22.25 0L20.4 -1.85Q17 0 12.35 0Q2.5 0 2.5 -8.15M13.15 -12.5Q7.1 -12.5 7.1 -8.25Q7.1 -3.75 12.35 -3.75Q17.15 -3.75 20 -5.8L20 -12Q17.25 -12.5 13.15 -12.5" />
</g>
<g id="PathID_9" transform="matrix(0.401332, 0, 0, 0.401332, 362.7, 204.65)" opacity="1">
<path style="fill:#588524;fill-opacity:1" d="M3.75 0.1L3.75 -27.5Q3.75 -37.05 13.55 -37.05Q16.75 -37.05 19.4 -36.05L19.4 -32.3Q16.9 -33.3 13.5 -33.3Q8.35 -33.3 8.35 -28.95L8.35 -26.25L16.25 -26.25L16.25 -22.5L8.35 -22.5L8.35 0L3.75 0.1" />
</g>
<g id="PathID_10" transform="matrix(0.401332, 0, 0, 0.401332, 376.8, 204.65)" opacity="1">
<path style="fill:#588524;fill-opacity:1" d="M24.8 -11.8L7.1 -11.8Q7.1 -3.75 17.25 -3.75Q20.75 -3.75 24.2 -4.5L24.2 -0.75Q20.75 0 15.75 0Q2.5 0 2.5 -13.4Q2.5 -26.25 15.05 -26.25Q27.1 -26.25 24.8 -11.8M7.1 -15.65L20.55 -15.65Q20.9 -22.55 14.3 -22.55Q7.55 -22.55 7.1 -15.65" />
</g>
<g id="PathID_11" transform="matrix(0.401332, 0, 0, 0.401332, 406.7, 204.65)" opacity="1">
<path style="fill:#588524;fill-opacity:1" d="M27.1 -35.75L27.1 -32L8.35 -32L8.35 -20L26.25 -20L26.25 -16.25L8.35 -16.25L8.35 -3.75L27.5 -3.75L27.5 0L3.75 0L3.75 -35.75L27.1 -35.75" />
</g>
<g id="PathID_12" transform="matrix(0.401332, 0, 0, 0.401332, 425.85, 204.65)" opacity="1">
<path style="fill:#588524;fill-opacity:1" d="M3.75 0L3.75 -26.25L6.85 -26.25L7.7 -22.9Q12.45 -26.25 17.3 -26.25Q26.35 -26.25 26.35 -16.45L26.35 0L21.75 0L21.75 -16.55Q21.75 -22.4 15.9 -22.4Q11.95 -22.4 8.35 -19.05L8.35 0L3.75 0" />
</g>
<g id="PathID_13" transform="matrix(0.401332, 0, 0, 0.401332, 444.75, 204.65)" opacity="1">
<path style="fill:#588524;fill-opacity:1" d="M24.8 -11.8L7.1 -11.8Q7.1 -3.75 17.25 -3.75Q20.75 -3.75 24.2 -4.5L24.2 -0.75Q20.75 0 15.75 0Q2.5 0 2.5 -13.4Q2.5 -26.25 15.05 -26.25Q27.1 -26.25 24.8 -11.8M7.1 -15.65L20.55 -15.65Q20.9 -22.55 14.3 -22.55Q7.55 -22.55 7.1 -15.65" />
</g>
<g id="PathID_14" transform="matrix(0.401332, 0, 0, 0.401332, 462.95, 204.65)" opacity="1">
<path style="fill:#588524;fill-opacity:1" d="M3.75 0L3.75 -26.25L6.85 -26.25L7.7 -22.9Q11.15 -26.25 16 -26.25L16 -22.4Q11.3 -22.4 8.35 -19.05L8.35 0L3.75 0" />
</g>
<g id="PathID_15" transform="matrix(0.401332, 0, 0, 0.401332, 476.6, 204.65)" opacity="1">
<path style="fill:#588524;fill-opacity:1" d="M21.3 -21.8Q18.9 -22.4 15.4 -22.4Q7.05 -22.4 7.05 -13.3Q7.05 -4 14.95 -4Q18.55 -4 21.3 -5.35L21.3 -21.8M25.9 0Q25.9 9.5 13.85 9.5Q9 9.5 5.25 8.25L5.25 4.5Q9.05 5.75 13.9 5.75Q21.3 5.75 21.3 0L21.3 -1.25Q18.35 0 14.95 0Q2.5 0 2.5 -13.25Q2.5 -26.25 15.6 -26.25Q20.95 -26.25 25.9 -25.15L25.9 0" />
</g>
<g id="PathID_16" transform="matrix(0.401332, 0, 0, 0.401332, 495.35, 204.65)" opacity="1">
<path style="fill:#588524;fill-opacity:1" d="M0.6 -26.25L5.65 -26.25L13.05 -5.75L20.75 -26.25L25.65 -26.25L14.75 0.75Q11.85 7.9 6.05 9.7L4.25 6.4Q8.65 4.5 10.65 0.15L0.6 -26.25" />
</g>
<g id="PathID_17" transform="matrix(0.817046, 0, 0, 0.817046, 214.85, 181.1)" opacity="1">
<path style="fill:#9ABB49;fill-opacity:1" d="M20.55 -4.4Q32.6 -4.4 32.6 -18.1Q32.6 -31.6 20.55 -31.6Q8.25 -31.6 8.25 -18.1Q8.25 -4.4 20.55 -4.4M2.45 -17.95Q2.45 -36.3 20.55 -36.3Q38.4 -36.3 38.4 -17.95Q38.4 0.25 20.55 0.25Q2.45 0.25 2.45 -17.95" />
</g>
<g id="PathID_18" transform="matrix(0.817046, 0, 0, 0.817046, 247.25, 181.1)" opacity="1">
<path style="fill:#9ABB49;fill-opacity:1" d="M27.6 -36.05L27.6 -31.35L16.6 -31.35L16.6 0L11 0L11 -31.35L0 -31.35L0 -36.05L27.6 -36.05" />
</g>
<g id="PathID_19" transform="matrix(0.817046, 0, 0, 0.817046, 268.6, 181.1)" opacity="1">
<path style="fill:#9ABB49;fill-opacity:1" d="M27.6 -36.05L27.6 -31.35L9.2 -31.35L9.2 -20.6L26.75 -20.6L26.75 -15.9L9.2 -15.9L9.2 -4.65L28 -4.65L28 0L3.65 0L3.65 -36.05L27.6 -36.05" />
</g>
<g id="PathID_20" transform="matrix(1.81503, 0, 0, 1.81503, 167.55, 177.35)" opacity="1">
<path style="fill:#588524;fill-opacity:1" d="M23 -15.5L23 15.55Q23 19.55 18.6 19.55L-18.6 19.55Q-23 19.55 -23 15.55L-23 -15.5Q-23 -19.5 -18.6 -19.5L18.6 -19.5Q23 -19.5 23 -15.5" />
</g>
<g id="PathID_21" transform="matrix(1.81503, 0, 0, 1.81503, 167.7, 177.35)" opacity="1">
<path style="fill:#CCE781;fill-opacity:1" d="M20.1 -15.5L20.1 15.55Q20.1 16.9 18.65 16.9L-18.55 16.9Q-20.05 16.9 -20.05 15.55L-20.05 -15.5Q-20.05 -16.85 -18.55 -16.85L18.65 -16.85Q20.1 -16.85 20.1 -15.5" />
</g>
<g id="PathID_22" transform="matrix(1.81503, 0, 0, 1.81503, 146.75, 179.9)" opacity="1">
<path style="fill:#588524;fill-opacity:1" d="M31.65 -9.75Q15.05 16.1 -3.15 7.25Q-4.4 9.85 -4.15 11.7L-3.9 14.15L-5.7 12.55Q-7.45 11.15 -7.45 9.85L-7.45 9.6L-7.1 8.6L-7 6.95Q-7 5.6 -8 3.95Q-19.8 10.95 -32.35 -5.7L-34.45 -8.55L-31.5 -6.65Q-28.75 -4.95 -23.2 -6.75Q-14.5 -10 -9.7 -6.45Q-7.1 -4.45 -6.1 -0.45Q-5 -5.4 -1.75 -8.25Q4.75 -14.05 18.1 -10.25Q26.3 -8.15 30.3 -11.05L34.45 -14.15L31.65 -9.75" />
</g>
<g id="PathID_23" transform="matrix(1.81503, 0, 0, 1.81503, 170.45, 179.35)" opacity="1">
<path style="fill:#CCE781;fill-opacity:1" d="M-14.15 5.15Q-1.3 10.55 14.15 -7.1Q0.1 12.5 -14.15 5.15" />
</g>
<g id="PathID_24" transform="matrix(1.81503, 0, 0, 1.81503, 158.7, 172.05)" opacity="1">
<path style="fill:#CCE781;fill-opacity:1" d="M10.65 -3.05Q-5.45 -6.8 -10.6 4.8Q-6 -8.75 10.65 -3.05" />
</g>
<g id="PathID_25" transform="matrix(1.81503, 0, 0, 1.81503, 112.75, 179.3)" opacity="1">
<path style="fill:#9DC22F;fill-opacity:1" d="M0.1 -3.65Q-4.25 -2.4 -7.55 -2.8Q-5.8 -1.9 -1.05 -2.65Q8.55 -4.15 13.15 5.85Q13.25 6.4 12.35 7.3Q12.35 5.5 10.9 3.4Q-0.6 10.85 -13.15 -5.75Q-10.2 -3.85 -4.3 -5.8Q2.9 -8.45 7.25 -6.4Q11.65 -4.35 12.35 2.05Q10.9 -0.35 7.75 -2.2Q3.7 -4.65 0.1 -3.65" />
</g>
<g id="PathID_26" transform="matrix(1.81503, 0, 0, 1.81503, 112.05, 180)" opacity="1">
<path style="fill:#CCE781;fill-opacity:1" d="M9.85 2.45Q0.65 8.25 -9.85 -4.25Q1.5 6.8 9.85 2.45" />
</g>
<g id="PathID_27" transform="matrix(1.81503, 0, 0, 1.81503, 119.2, 173.5)" opacity="1">
<path style="fill:#CCE781;fill-opacity:1" d="M7.4 2.95Q3.35 -4.7 -7.35 -1.25Q3.65 -6 7.4 2.95" />
</g>
<g id="PathID_28" transform="matrix(0.817046, 0, 0, 0.817046, 299.3, 181.15)" opacity="1">
<path style="fill:#4CBED9;fill-opacity:1" d="M27.1 -35.75L27.1 -32L8.35 -32L8.35 -20L26.25 -20L26.25 -16.25L8.35 -16.25L8.35 -3.75L27.5 -3.75L27.5 0L3.75 0L3.75 -35.75L27.1 -35.75" />
</g>
<g id="PathID_29" transform="matrix(0.817046, 0, 0, 0.817046, 323.45, 181.15)" opacity="1">
<path style="fill:#4CBED9;fill-opacity:1" d="M3.75 0L3.75 -26.25L6.85 -26.25L7.7 -22.9Q12.45 -26.25 17.3 -26.25Q26.35 -26.25 26.35 -16.45L26.35 0L21.75 0L21.75 -16.55Q21.75 -22.4 15.9 -22.4Q11.95 -22.4 8.35 -19.05L8.35 0L3.75 0" />
</g>
<g id="PathID_30" transform="matrix(0.817046, 0, 0, 0.817046, 347.2, 181.15)" opacity="1">
<path style="fill:#4CBED9;fill-opacity:1" d="M24.8 -11.8L7.1 -11.8Q7.1 -3.75 17.25 -3.75Q20.75 -3.75 24.2 -4.5L24.2 -0.75Q20.75 0 15.75 0Q2.5 0 2.5 -13.4Q2.5 -26.25 15.05 -26.25Q27.1 -26.25 24.8 -11.8M7.1 -15.65L20.55 -15.65Q20.9 -22.55 14.3 -22.55Q7.55 -22.55 7.1 -15.65" />
</g>
<g id="PathID_31" transform="matrix(0.817046, 0, 0, 0.817046, 369.45, 181.15)" opacity="1">
<path style="fill:#4CBED9;fill-opacity:1" d="M3.75 0L3.75 -26.25L6.85 -26.25L7.7 -22.9Q11.15 -26.25 16 -26.25L16 -22.4Q11.3 -22.4 8.35 -19.05L8.35 0L3.75 0" />
</g>
<g id="PathID_32" transform="matrix(0.817046, 0, 0, 0.817046, 382.4, 181.15)" opacity="1">
<path style="fill:#4CBED9;fill-opacity:1" d="M21.3 -21.8Q18.9 -22.4 15.4 -22.4Q7.05 -22.4 7.05 -13.3Q7.05 -4 14.95 -4Q18.55 -4 21.3 -5.35L21.3 -21.8M25.9 0Q25.9 9.5 13.85 9.5Q9 9.5 5.25 8.25L5.25 4.5Q9.05 5.75 13.9 5.75Q21.3 5.75 21.3 0L21.3 -1.25Q18.35 0 14.95 0Q2.5 0 2.5 -13.25Q2.5 -26.25 15.6 -26.25Q20.95 -26.25 25.9 -25.15L25.9 0" />
</g>
<g id="PathID_33" transform="matrix(0.817046, 0, 0, 0.817046, 405.8, 181.15)" opacity="1">
<path style="fill:#4CBED9;fill-opacity:1" d="M0.6 -26.25L5.65 -26.25L13.05 -5.75L20.75 -26.25L25.65 -26.25L14.75 0.75Q11.85 7.9 6.05 9.7L4.25 6.4Q8.65 4.5 10.65 0.15L0.6 -26.25" />
</g>
</svg>
